<svg width="387" height="552" viewBox="0 0 387 552" fill="none" xmlns="http://www.w3.org/2000/svg">
<path d="M65.1848 12.1038L94.8645 2.61517C122.724 -6.26666 152.431 8.10425 164.374 36.1841L188.069 92.1231C198.385 116.479 192.675 145.138 173.891 162.957L121.648 212.552C124.848 242.232 134.833 271.442 151.548 300.184C167.43 327.994 188.731 352.334 214.19 371.763L276.942 350.8C300.746 342.883 326.647 352.013 341.211 373.446L375.221 423.371C392.185 448.307 389.151 482.675 368.105 503.804L345.542 526.45C323.089 548.986 291.01 557.178 261.357 547.91C191.323 526.064 126.944 461.216 68.1914 353.365C9.35615 245.349 -11.4141 153.662 5.90823 78.4142C13.1902 46.7485 35.7258 21.5098 65.1848 12.1038Z" fill="inherit"/>
</svg>
