<svg width="101" height="9" xmlns="http://www.w3.org/2000/svg" xmlns:xlink="http://www.w3.org/1999/xlink" xmlns:svgjs="http://svgjs.com/svgjs" viewBox="624 2505 101 9"><svg width="23" height="9" xmlns="http://www.w3.org/2000/svg" xmlns:xlink="http://www.w3.org/1999/xlink" xmlns:svgjs="http://svgjs.com/svgjs" viewBox="0 0.318 23 8.364" fill="#2a3444" x="624" y="2505"><svg xmlns="http://www.w3.org/2000/svg" xmlns:xlink="http://www.w3.org/1999/xlink" width="23" height="9" viewBox="2 1.999 22 8"><path paint-order="stroke fill markers" fill-rule="evenodd" d="M2 2h22v8H2V2z"/></svg></svg><svg width="101" height="9" xmlns="http://www.w3.org/2000/svg" xmlns:xlink="http://www.w3.org/1999/xlink" xmlns:svgjs="http://svgjs.com/svgjs" viewBox="624 2505 101 9" x="624" y="2505"><svg width="23" height="9" xmlns="http://www.w3.org/2000/svg" xmlns:xlink="http://www.w3.org/1999/xlink" xmlns:svgjs="http://svgjs.com/svgjs" viewBox="0 0.318 23 8.364" fill="#2a3444" x="624" y="2505"><svg xmlns="http://www.w3.org/2000/svg" xmlns:xlink="http://www.w3.org/1999/xlink" width="23" height="9" viewBox="2 1.999 22 8"><path paint-order="stroke fill markers" fill-rule="evenodd" d="M2 2h22v8H2V2z"/></svg></svg><svg width="23" height="7" xmlns="http://www.w3.org/2000/svg" xmlns:xlink="http://www.w3.org/1999/xlink" xmlns:svgjs="http://svgjs.com/svgjs" viewBox="0 0.364 23 6.273" fill="#e72f29" x="650" y="2507"><svg xmlns="http://www.w3.org/2000/svg" xmlns:xlink="http://www.w3.org/1999/xlink" width="23" height="7" viewBox="2 2 22 6"><path paint-order="stroke fill markers" fill-rule="evenodd" d="M2 2h22v6H2V2z"/></svg></svg><svg width="23" height="7" xmlns="http://www.w3.org/2000/svg" xmlns:xlink="http://www.w3.org/1999/xlink" xmlns:svgjs="http://svgjs.com/svgjs" viewBox="0 0.364 23 6.273" fill="#e72f29" x="676" y="2507"><svg xmlns="http://www.w3.org/2000/svg" xmlns:xlink="http://www.w3.org/1999/xlink" width="23" height="7" viewBox="2 2 22 6"><path paint-order="stroke fill markers" fill-rule="evenodd" d="M2 2h22v6H2V2z"/></svg></svg><svg width="23" height="7" xmlns="http://www.w3.org/2000/svg" xmlns:xlink="http://www.w3.org/1999/xlink" xmlns:svgjs="http://svgjs.com/svgjs" viewBox="0 0.364 23 6.273" fill="#e72f29" x="702" y="2507"><svg xmlns="http://www.w3.org/2000/svg" width="23" height="7" viewBox="2 2 22 6"><path paint-order="stroke fill markers" fill-rule="evenodd" d="M2 2h22v6H2V2z"/></svg></svg></svg></svg>