<svg width="auto" height="auto" viewBox="0 0 79 78" fill="none" xmlns="http://www.w3.org/2000/svg">
<path d="M4.1785 19.4513C4.1785 26.0724 6.37331 30.8499 10.697 33.6552C14.2421 35.9598 18.3502 36.3055 20.4878 36.3055C21.0068 36.3055 21.4247 36.2789 21.715 36.2611C21.715 36.2611 21.0376 40.7107 24.3101 45.1071H24.1605C18.491 45.1071 0 46.2992 0 61.6244C0 77.2067 16.9823 78 20.3911 78C20.6594 78 20.8177 77.9911 20.8177 77.9911C20.8529 77.9911 21.0948 78 21.5127 78C23.6987 78 29.3506 77.7252 34.598 75.1503C41.4067 71.8265 44.8595 66.0252 44.8595 57.9327C44.8595 50.115 39.599 45.4616 35.7591 42.058C33.4148 39.9794 31.3871 38.189 31.3871 36.4473C31.3871 34.6745 32.8694 33.3406 34.7387 31.652C37.7692 28.9265 40.6282 25.0398 40.6282 17.6918C40.6282 11.2347 39.7969 6.89591 34.6727 4.14375C35.2049 3.86898 37.0963 3.66955 38.0287 3.53659C40.8041 3.15545 44.8639 2.72114 44.8639 0.43875V0H24.6355C24.4332 0.00886364 4.1785 0.762272 4.1785 19.4513V19.4513ZM36.8324 59.3952C37.2194 65.6264 31.9281 70.2222 23.9802 70.8027C15.9091 71.401 9.26747 67.7403 8.88041 61.5136C8.69128 58.5177 9.99761 55.5927 12.5531 53.2572C15.1438 50.895 18.7021 49.4325 22.5727 49.1444C23.0301 49.1178 23.4832 49.0913 23.9362 49.0913C31.4091 49.0957 36.4673 53.5186 36.8324 59.3952V59.3952ZM31.5499 15.1834C33.5335 22.2211 30.5382 29.5691 25.7615 30.9297C25.2117 31.084 24.6434 31.1616 24.0725 31.1601C19.7005 31.1601 15.3681 26.7017 13.7583 20.5548C12.861 17.1157 12.9358 14.0932 13.965 11.1948C14.9722 8.33625 16.7932 6.41727 19.0803 5.7658C19.6301 5.61068 20.1975 5.53091 20.7737 5.53091C26.0518 5.53091 29.4474 7.73795 31.5499 15.1834V15.1834ZM65.8047 30.1364V16.8409H57.0079V30.1364H43.8127V39H57.0079V52.2955H65.8047V39H79V30.1364H65.8047Z" fill="inherit"/>
</svg>
