<svg width="479" height="389" viewBox="0 0 479 389" fill="none" xmlns="http://www.w3.org/2000/svg">
<path d="M478.3 101.084V313.825C478.3 333.617 470.438 352.598 456.443 366.593C442.448 380.588 423.467 388.45 403.675 388.45H75.325C55.5332 388.45 36.552 380.588 22.5571 366.593C8.56224 352.598 0.699982 333.617 0.699982 313.825V101.084L231.918 237.14C234.215 238.495 236.833 239.21 239.5 239.21C242.167 239.21 244.785 238.495 247.082 237.14L478.3 101.084ZM403.675 0.399995C422.037 0.397107 439.756 7.1642 453.441 19.4067C467.126 31.6492 475.818 48.5075 477.852 66.7566L239.5 206.962L1.14773 66.7566C3.18226 48.5075 11.8736 31.6492 25.5589 19.4067C39.2443 7.1642 56.9629 0.397107 75.325 0.399995H403.675Z" fill="inherit"/>
</svg>
