<svg width="318" height="460" viewBox="0 0 318 460" fill="none" xmlns="http://www.w3.org/2000/svg">
<path d="M310 114C309.333 112 308.167 108.833 306.5 104.5C304.833 100.167 303.667 97.3333 303 96C289 63.3333 268.5 39.1667 241.5 23.5C214.5 7.83333 186.333 0 157 0C119 0 84.6667 12.5 54 37.5C23.3333 62.5 5.33333 97.6667 0 143V162L1 167V174C2.33333 184.667 5.83333 196.833 11.5 210.5C17.1667 224.167 22.3333 235.167 27 243.5C31.6667 251.833 39.1667 264.5 49.5 281.5C59.8333 298.5 66.6667 309.667 70 315C89.3333 347.667 119 396 159 460C164.333 451.333 182.667 420 214 366C215.333 364 217.833 360 221.5 354C225.167 348 227.667 343.333 229 340C230.333 338 232.5 335.167 235.5 331.5C238.5 327.833 240.667 325 242 323C246.667 314.333 256.833 297.833 272.5 273.5C288.167 249.167 299.667 228.667 307 212C314.333 195.333 318 179 318 163V141C318 133.667 315.333 124.667 310 114ZM158 213C132 213 114 200.333 104 175C103.333 171.667 103 166.667 103 160V147C103 130.333 108.667 117.5 120 108.5C131.333 99.5 144.667 95 160 95C176.667 95 190.5 100.667 201.5 112C212.5 123.333 218 137.333 218 154C218 170.667 212.167 184.667 200.5 196C188.833 207.333 174.667 213 158 213Z" fill="inherit"/>
</svg>
