<svg width="auto" height="auto" viewBox="0 0 45 45" fill="none" xmlns="http://www.w3.org/2000/svg">
<path d="M19.2441 38.4862C23.5139 38.4853 27.6606 37.056 31.0239 34.4259L41.5986 45L45 41.5988L34.4254 31.0247C37.057 27.6612 38.4872 23.5137 38.4883 19.2431C38.4883 8.63294 29.8549 0 19.2441 0C8.6334 0 0 8.63294 0 19.2431C0 29.8533 8.6334 38.4862 19.2441 38.4862ZM19.2441 4.81078C27.204 4.81078 33.6772 11.2837 33.6772 19.2431C33.6772 27.2025 27.204 33.6754 19.2441 33.6754C11.2843 33.6754 4.81103 27.2025 4.81103 19.2431C4.81103 11.2837 11.2843 4.81078 19.2441 4.81078Z" fill="inherit"/>
</svg>
