<svg width="124" height="100" viewBox="0 0 124 100" fill="none" xmlns="http://www.w3.org/2000/svg">
<path d="M4.1785 41.4513C4.1785 48.0724 6.37331 52.8499 10.697 55.6552C14.2421 57.9598 18.3502 58.3055 20.4878 58.3055C21.0068 58.3055 21.4247 58.2789 21.715 58.2611C21.715 58.2611 21.0376 62.7107 24.3101 67.1071H24.1605C18.491 67.1071 0 68.2992 0 83.6244C0 99.2067 16.9823 100 20.3911 100C20.6594 100 20.8177 99.9911 20.8177 99.9911C20.8529 99.9911 21.0948 100 21.5127 100C23.6987 100 29.3506 99.7252 34.598 97.1503C41.4067 93.8265 44.8595 88.0252 44.8595 79.9327C44.8595 72.115 39.599 67.4616 35.7591 64.058C33.4148 61.9794 31.3871 60.189 31.3871 58.4473C31.3871 56.6745 32.8694 55.3406 34.7387 53.652C37.7692 50.9265 40.6282 47.0398 40.6282 39.6918C40.6282 33.2347 39.7969 28.8959 34.6727 26.1438C35.2049 25.869 37.0963 25.6695 38.0287 25.5366C40.8041 25.1555 44.8639 24.7211 44.8639 22.4387V22H24.6355C24.4332 22.0089 4.1785 22.7623 4.1785 41.4513ZM36.8324 81.3952C37.2194 87.6264 31.9281 92.2222 23.9802 92.8027C15.9091 93.401 9.26747 89.7403 8.88041 83.5136C8.69128 80.5177 9.99761 77.5927 12.5531 75.2572C15.1438 72.895 18.7021 71.4325 22.5727 71.1444C23.0301 71.1178 23.4832 71.0913 23.9362 71.0913C31.4091 71.0957 36.4673 75.5186 36.8324 81.3952ZM31.5499 37.1834C33.5335 44.2211 30.5382 51.5691 25.7615 52.9297C25.2117 53.084 24.6434 53.1616 24.0725 53.1601C19.7005 53.1601 15.3681 48.7017 13.7583 42.5548C12.861 39.1157 12.9358 36.0932 13.965 33.1948C14.9722 30.3363 16.7932 28.4173 19.0803 27.7658C19.6301 27.6107 20.1975 27.5309 20.7737 27.5309C26.0518 27.5309 29.4474 29.738 31.5499 37.1834ZM65.8047 52.1364V38.8409H57.0079V52.1364H43.8127V61H57.0079V74.2955H65.8047V61H79V52.1364H65.8047Z" fill="black"/>
<path d="M106.833 79H96.7896V30.4819L81.9727 35.5454V27.0371L105.547 18.3628H106.833V79Z" fill="black"/>
</svg>
