<svg width="auto" height="auto" viewBox="0 0 89 72" fill="none" xmlns="http://www.w3.org/2000/svg">
<path d="M89.0001 8.52862C86.5217 12.2 83.4811 15.3297 79.8783 17.9176C79.9138 18.6117 79.9316 19.3962 79.9316 20.2711C79.9316 25.1322 79.22 29.9992 77.7967 34.872C76.3735 39.745 74.1994 44.4092 71.2745 48.8647C68.3497 53.3203 64.8657 57.2675 60.8224 60.7064C56.7792 64.1454 51.9191 66.8874 46.242 68.9324C40.5649 70.9775 34.4807 72.0001 27.9892 72.0001C17.8581 72.0001 8.52837 69.2762 0 63.8286C1.51368 63.9963 2.96544 64.0802 4.35525 64.0802C12.8189 64.0802 20.3784 61.484 27.0336 56.2915C23.0873 56.2194 19.5531 55.0096 16.4311 52.662C13.309 50.3145 11.1604 47.3148 9.98544 43.6629C11.1469 43.8832 12.2931 43.9934 13.4243 43.9934C15.0525 43.9934 16.6546 43.7819 18.2307 43.3589C14.0193 42.5189 10.5256 40.4299 7.74955 37.092C4.97362 33.7542 3.58566 29.9016 3.58566 25.5344V25.3093C6.17063 26.7347 8.9279 27.4929 11.8575 27.5839C9.36269 25.9275 7.38469 23.7676 5.9235 21.104C4.4622 18.4404 3.73156 15.558 3.73156 12.4566C3.73156 9.18578 4.55455 6.13999 6.20053 3.31927C10.7803 8.91641 16.3297 13.3898 22.8487 16.7395C29.3678 20.0892 36.3615 21.9496 43.8299 22.3205C43.5113 20.9984 43.3518 19.6188 43.3512 18.1816C43.3512 13.1634 45.1343 8.87856 48.7006 5.32714C52.267 1.77571 56.5696 0 61.6084 0C66.8839 0 71.3275 1.91306 74.9392 5.73919C79.0658 4.92516 82.9296 3.45278 86.5307 1.32206C85.1433 5.67038 82.47 9.02482 78.5107 11.3854C82.1496 10.9547 85.6461 10.0025 88.9999 8.52862H89.0001Z" fill="inherit"/>
</svg>
